<svg width="250" height="149.5" viewBox="0 0 181 108.2" fill="none" xmlns="http://www.w3.org/2000/svg">
<path d="M24.4717 70.8205C23.6542 68.3681 22.6684 66.5889 21.5143 65.4829C20.3603 64.3769 18.9177 63.8239 17.1865 63.8239C15.4073 63.8239 14.0369 64.3288 13.0751 65.3386C12.1615 66.3484 11.7047 67.743 11.7047 69.5222C11.7047 70.8205 12.2577 71.9746 13.3637 72.9844C14.4696 73.9461 15.8401 74.8838 17.4751 75.7975C19.11 76.7111 20.8892 77.6969 22.8127 78.7548C24.7361 79.7646 26.5153 80.9668 28.1503 82.3613C29.7852 83.7558 31.1557 85.4148 32.2617 87.3382C33.3677 89.2617 33.9207 91.5698 33.9207 94.2627C33.9207 96.5228 33.536 98.5664 32.7666 100.394C32.0453 102.221 30.9633 103.784 29.5207 105.082C28.1262 106.381 26.3951 107.39 24.3274 108.112C22.2597 108.785 19.9275 109.121 17.3308 109.121C13.2434 109.121 9.70911 107.967 6.72772 105.659C3.79444 103.351 1.65459 99.6243 0.308167 94.4791L10.1178 92.3873C10.4063 93.9742 10.8151 95.3206 11.344 96.4266C11.9211 97.4845 12.5702 98.3501 13.2915 99.0233C14.0128 99.6965 14.7582 100.177 15.5276 100.466C16.345 100.754 17.1144 100.899 17.8357 100.899C19.5668 100.899 21.0094 100.37 22.1635 99.3118C23.3657 98.2058 23.9667 96.667 23.9667 94.6955C23.9667 93.0605 23.4137 91.666 22.3078 90.5119C21.2018 89.3098 19.8313 88.2038 18.1964 87.194C16.5614 86.1842 14.7822 85.1984 12.8587 84.2366C10.9353 83.2268 9.15611 82.0968 7.52115 80.8465C5.88621 79.5482 4.51574 78.0575 3.40975 76.3745C2.30376 74.6915 1.75076 72.6237 1.75076 70.1713C1.75076 65.6512 3.0491 62.0928 5.64577 59.4961C8.29051 56.8994 12.2096 55.6011 17.4029 55.6011C19.6149 55.6011 21.6105 55.9137 23.3897 56.5388C25.1689 57.1639 26.7317 58.0535 28.0781 59.2076C29.4246 60.3136 30.5306 61.636 31.3961 63.1747C32.3098 64.7135 32.983 66.3965 33.4158 68.2238L24.4717 70.8205ZM46.7355 88.6366H56.6173L51.7846 67.5747H51.6404L46.7355 88.6366ZM32.526 108.4L45.4372 56.3224H58.2042L70.7548 108.4H61.2336L58.7091 97.4364H44.9323L42.1192 108.4H32.526ZM70.2256 108.4V56.3224H84.1467L93.1629 90.5119H93.3072L102.323 56.3224H116.244V108.4H107.733V67.4304H107.589L96.9858 108.4H89.4843L78.8812 67.4304H78.737V108.4H70.2256Z" fill="black"/>
<path d="M140.008 56.9079C145.56 56.9079 150.061 52.4056 150.061 46.8517C150.061 41.2977 145.56 36.7954 140.008 36.7954C134.456 36.7954 129.955 41.2977 129.955 46.8517C129.955 52.4056 134.456 56.9079 140.008 56.9079Z" fill="black"/>
<path d="M161.589 4.47401e-06C165.239 -0.00253736 168.808 1.07805 171.844 3.10504C174.88 5.13203 177.247 8.01433 178.645 11.3872C180.043 14.7601 180.409 18.4721 179.698 22.0534C178.986 25.6347 177.229 28.9244 174.648 31.5063C172.067 34.0882 168.778 35.8462 165.198 36.5579C161.618 37.2696 157.908 36.9031 154.536 35.5046C151.164 34.1061 148.283 31.7386 146.256 28.7015C144.23 25.6645 143.15 22.0944 143.152 18.4431C143.156 13.5527 145.099 8.86364 148.556 5.40562C152.013 1.94761 156.701 0.00340884 161.589 4.47401e-06Z" fill="black"/>
</svg>
