<svg class="" width="16" height="16" viewBox="0 0 16 16" fill="none" xmlns="http://www.w3.org/2000/svg">
<g clip-path="url(#clip0_234_3406)">
<path d="M4.99989 3.99991H6.99989V11.4999C6.99989 11.6325 7.05257 11.7597 7.14634 11.8535C7.24011 11.9472 7.36729 11.9999 7.49989 11.9999H8.49989C8.6325 11.9999 8.75968 11.9472 8.85345 11.8535C8.94722 11.7597 8.99989 11.6325 8.99989 11.4999V3.99991H10.9999C11.0989 4.00008 11.1958 3.97085 11.2781 3.91593C11.3605 3.861 11.4248 3.78284 11.4627 3.69137C11.5006 3.59989 11.5105 3.49922 11.4911 3.40211C11.4718 3.30501 11.424 3.21583 11.3539 3.1459L8.35389 0.145905C8.26013 0.0521694 8.13298 -0.000488281 8.00039 -0.000488281C7.86781 -0.000488281 7.74066 0.0521694 7.64689 0.145905L4.64689 3.1459C4.57685 3.21577 4.5291 3.30485 4.50971 3.40187C4.49031 3.49888 4.50013 3.59947 4.53792 3.69091C4.57571 3.78234 4.63978 3.8605 4.72202 3.91551C4.80425 3.97051 4.90096 3.99988 4.99989 3.99991Z" fill="#181818"></path>
<path d="M14.9917 6.876C14.9615 6.63419 14.844 6.41173 14.6613 6.25043C14.4787 6.08912 14.2434 6.00007 13.9997 6H10.9997V8H13.1167L13.8667 14H2.13269L2.88269 8H4.99969V6H1.99969C1.756 6.00007 1.52072 6.08912 1.33805 6.25043C1.15539 6.41173 1.03791 6.63419 1.00769 6.876L0.0076912 14.876C-0.0251192 15.1391 0.0478839 15.4044 0.210652 15.6137C0.373419 15.823 0.612628 15.959 0.875691 15.992C0.916826 15.9972 0.958235 15.9998 0.999691 16H14.9997C15.2649 16 15.5193 15.8946 15.7068 15.7071C15.8943 15.5196 15.9997 15.2652 15.9997 15C15.9995 14.9585 15.9969 14.9171 15.9917 14.876L14.9917 6.876Z" fill="#181818"></path>
</g>
<defs>
<clipPath id="clip0_234_3406">
<rect width="16" height="16" fill="white"></rect>
</clipPath>
</defs>
</svg>